<?xml version="1.0" standalone="no"?>
<!DOCTYPE svg PUBLIC "-//W3C//DTD SVG 20010904//EN"
 "http://www.w3.org/TR/2001/REC-SVG-20010904/DTD/svg10.dtd">
<svg version="1.0" xmlns="http://www.w3.org/2000/svg"
 width="510.000000pt" height="511.000000pt" viewBox="0 0 510.000000 511.000000"
 preserveAspectRatio="xMidYMid meet">

<g transform="translate(0.000000,511.000000) scale(0.100000,-0.100000)"
fill="#000000" stroke="none">
<path d="M0 2555 l0 -2555 2550 0 2550 0 0 2555 0 2555 -2550 0 -2550 0 0
-2555z m2940 2190 c478 -75 892 -286 1236 -629 186 -186 322 -377 440 -620
212 -434 276 -937 179 -1408 -153 -747 -699 -1359 -1428 -1602 -244 -81 -397
-107 -667 -113 -310 -7 -505 22 -783 116 -150 51 -212 80 -310 144 -194 128
-323 314 -369 533 -26 126 -21 325 11 449 69 261 419 1097 677 1615 313 627
552 951 701 950 217 -2 577 -632 952 -1665 192 -529 331 -1011 331 -1150 0
-79 -58 -114 -137 -84 -15 6 -100 59 -188 118 -550 370 -1114 644 -1654 802
-74 21 -142 39 -152 39 -28 0 -31 15 -13 60 16 40 18 41 53 35 221 -40 648
-178 943 -305 399 -173 823 -422 1007 -594 l55 -51 -24 40 c-13 22 -32 52 -42
67 -10 15 -37 84 -59 155 -291 918 -514 1505 -731 1923 -127 245 -250 408
-322 426 -86 21 -254 -158 -413 -441 -140 -251 -237 -454 -395 -825 -180 -423
-393 -981 -430 -1123 -26 -100 -31 -310 -9 -397 19 -81 83 -207 138 -274 131
-161 399 -296 705 -355 296 -57 554 -51 848 20 466 113 878 389 1172 784 209
280 340 611 377 957 52 476 -103 988 -428 1413 -61 81 -228 252 -326 335 -252
213 -566 365 -900 437 -122 26 -144 28 -375 27 -206 0 -265 -3 -370 -22 -460
-79 -770 -234 -1071 -534 -312 -312 -523 -741 -608 -1238 -48 -278 -52 -664
-12 -930 5 -30 8 -57 6 -58 -6 -7 -63 184 -83 278 -35 163 -46 278 -46 480 0
281 32 479 115 733 137 412 424 808 778 1071 317 236 702 385 1091 425 130 13
403 6 530 -14z m-243 -1920 c27 -18 53 -71 53 -107 0 -55 -67 -118 -125 -118
-62 0 -125 63 -125 125 0 41 34 93 73 111 37 16 88 12 124 -11z m-1240 -399
c2 -2 -27 -85 -33 -94 -1 -2 -46 6 -100 17 -112 23 -293 40 -434 42 l-95 1 70
15 c110 22 276 32 440 26 83 -2 151 -6 152 -7z"/>
</g>
</svg>
